<?xml version="1.0" encoding="UTF-8" standalone="no"?>
<!-- Created with Inkscape (http://www.inkscape.org/) -->

<svg
   width="215"
   height="30"
   viewBox="0 0 56.885417 7.9375"
   version="1.1"
   id="svg5"
   inkscape:version="1.1 (c68e22c387, 2021-05-23)"
   sodipodi:docname="logo.svg"
   xmlns:inkscape="http://www.inkscape.org/namespaces/inkscape"
   xmlns:sodipodi="http://sodipodi.sourceforge.net/DTD/sodipodi-0.dtd"
   xmlns="http://www.w3.org/2000/svg"
   xmlns:svg="http://www.w3.org/2000/svg">
  <sodipodi:namedview
     id="namedview7"
     pagecolor="#ffffff"
     bordercolor="#000000"
     borderopacity="1"
     inkscape:pageshadow="2"
     inkscape:pageopacity="0"
     inkscape:pagecheckerboard="true"
     inkscape:document-units="px"
     showgrid="true"
     showborder="true"
     borderlayer="true"
     inkscape:showpageshadow="false"
     inkscape:snap-object-midpoints="true"
     inkscape:snap-center="true"
     inkscape:snap-bbox="true"
     inkscape:snap-bbox-midpoints="true"
     width="215px"
     inkscape:snap-grids="true"
     showguides="true"
     inkscape:guide-bbox="true"
     inkscape:zoom="1.5093023"
     inkscape:cx="74.206471"
     inkscape:cy="48.697997"
     inkscape:window-width="1920"
     inkscape:window-height="1013"
     inkscape:window-x="-9"
     inkscape:window-y="-9"
     inkscape:window-maximized="1"
     inkscape:current-layer="layer1">
    <sodipodi:guide
       position="10.167501,51.085681"
       orientation="0,-1"
       id="guide8702" />
    <sodipodi:guide
       position="6.5820328,50.603601"
       orientation="1,0"
       id="guide8704" />
    <sodipodi:guide
       position="13.731057,49.749005"
       orientation="1,0"
       id="guide8706" />
    <sodipodi:guide
       position="8.9623018,52.301837"
       orientation="1,0"
       id="guide8730" />
    <sodipodi:guide
       position="11.34531,50.288606"
       orientation="1,0"
       id="guide8958" />
    <sodipodi:guide
       position="10.167501,51.581456"
       orientation="1,0"
       id="guide9929" />
  </sodipodi:namedview>
  <defs
     id="defs2">
    <rect
       x="11.698113"
       y="113.96226"
       width="281.13208"
       height="79.245285"
       id="rect4544" />
  </defs>
  <g
     inkscape:label="Слой 1"
     inkscape:groupmode="layer"
     id="layer1">
    <g
       id="g10319"
       transform="matrix(1.0030982,0,0,0.99032879,-6.6050209,-24.920683)">
      <g
         aria-label="OnePicture
"
         transform="matrix(0.26458333,0,0,0.26458333,2.8954398,-6.7893085)"
         id="text4542"
         style="font-size:40px;line-height:1.25;white-space:pre;shape-inside:url(#rect4544)">
        <path
           d="m 37.283203,124.71392 c 1.184896,1.30208 2.089844,2.89713 2.714844,4.78515 0.638021,1.88802 0.957031,4.02995 0.957031,6.42578 0,2.39583 -0.325521,4.54427 -0.976562,6.44532 -0.638021,1.88802 -1.536459,3.46354 -2.695313,4.72656 -1.197917,1.3151 -2.617187,2.30468 -4.257812,2.96875 -1.627605,0.66406 -3.489584,0.99609 -5.585938,0.99609 -2.044271,0 -3.90625,-0.33854 -5.585937,-1.01562 -1.666667,-0.67709 -3.085938,-1.66016 -4.257813,-2.94922 -1.171875,-1.28907 -2.076823,-2.8711 -2.714844,-4.7461 -0.625,-1.875 -0.9375,-4.01693 -0.9375,-6.42578 0,-2.36979 0.3125,-4.49218 0.9375,-6.36718 0.625,-1.88803 1.536458,-3.50261 2.734375,-4.84375 1.145833,-1.27605 2.565104,-2.25261 4.257813,-2.92969 1.705729,-0.67709 3.561198,-1.01563 5.566406,-1.01563 2.083333,0 3.951823,0.34505 5.605469,1.03516 1.666667,0.67708 3.079427,1.64713 4.238281,2.91016 z m -0.351562,11.21093 c 0,-3.77604 -0.846354,-6.6862 -2.539063,-8.73047 -1.692708,-2.05729 -4.003906,-3.08593 -6.933594,-3.08593 -2.955729,0 -5.279947,1.02864 -6.972656,3.08593 -1.679687,2.04427 -2.519531,4.95443 -2.519531,8.73047 0,3.81511 0.859375,6.73828 2.578125,8.76953 1.71875,2.01823 3.672063,-2.59464 6.562688,-2.59464 2.890625,0 5.540177,4.61287 7.245906,2.59464 1.71875,-2.03125 2.578125,-4.95442 2.578125,-8.76953 z"
           id="path8253"
           sodipodi:nodetypes="ccscccscscscccsccscscscscs" />
        <path
           d="m 65.037109,150.4561 h -3.671875 v -12.42187 q 0,-1.50391 -0.175781,-2.8125 -0.175781,-1.32813 -0.644531,-2.07031 -0.488281,-0.82032 -1.40625,-1.21094 -0.917969,-0.41016 -2.382813,-0.41016 -1.503906,0 -3.144531,0.74219 -1.640625,0.74219 -3.144531,1.89453 v 16.28906 h -3.671875 v -21.8164 h 3.671875 v 2.42187 q 1.71875,-1.42578 3.554687,-2.22656 1.835938,-0.80078 3.769532,-0.80078 3.535156,0 5.390625,2.1289 1.855468,2.12891 1.855468,6.13282 z"
           id="path8255" />
        <path
           d="M 90.369141,139.92876 H 74.294922 q 0,2.01172 0.605469,3.51562 0.605468,1.48438 1.660156,2.44141 1.015625,0.9375 2.402344,1.40625 1.40625,0.46875 3.085937,0.46875 2.226563,0 4.472656,-0.87891 2.265625,-0.89843 3.222657,-1.75781 h 0.195312 v 4.00391 q -1.855469,0.78125 -3.789062,1.30859 -1.933594,0.52735 -4.0625,0.52735 -5.429688,0 -8.476563,-2.92969 -3.046875,-2.94922 -3.046875,-8.35938 0,-5.35156 2.910156,-8.49609 2.929688,-3.14453 7.695313,-3.14453 4.414062,0 6.796875,2.57812 2.402344,2.57813 2.402344,7.32422 z m -3.574219,-2.8125 q -0.01953,-2.89063 -1.464844,-4.47266 -1.425781,-1.58203 -4.355469,-1.58203 -2.949218,0 -4.707031,1.73828 -1.738281,1.73828 -1.972656,4.31641 z"
           id="path8257" />
        <path
           d="m 115.25195,130.16313 q 0,1.9336 -0.68359,3.59375 -0.66406,1.64063 -1.875,2.85157 -1.50391,1.5039 -3.55469,2.26562 -2.05078,0.74219 -5.17578,0.74219 h -3.86719 v 10.83984 h -3.867184 v -29.08203 h 7.890624 q 2.61719,0 4.43359,0.44922 1.81641,0.42969 3.22266,1.36719 1.66016,1.11328 2.55859,2.77344 0.91797,1.66015 0.91797,4.19921 z m -4.02343,0.0977 q 0,-1.50391 -0.52735,-2.61719 -0.52734,-1.11328 -1.60156,-1.8164 -0.9375,-0.60547 -2.14844,-0.85938 -1.1914,-0.27344 -3.02734,-0.27344 h -3.82813 v 11.6211 h 3.26172 q 2.34375,0 3.8086,-0.41016 1.46484,-0.42969 2.38281,-1.34765 0.91797,-0.9375 1.28906,-1.97266 0.39063,-1.03516 0.39063,-2.32422 z"
           id="path8259" />
        <path
           d="m 124.00195,124.98735 h -4.14062 v -3.80859 h 4.14062 z m -0.23437,25.46875 h -3.67188 v -21.8164 h 3.67188 z"
           id="path8261" />
        <path
           d="m 147.16602,149.08892 q -1.83594,0.8789 -3.4961,1.36718 -1.64062,0.48828 -3.49609,0.48828 -2.36328,0 -4.33594,-0.68359 -1.97266,-0.70312 -3.37891,-2.10937 -1.42578,-1.40625 -2.20703,-3.55469 -0.78125,-2.14844 -0.78125,-5.01953 0,-5.35157 2.92969,-8.39844 2.94922,-3.04688 7.77344,-3.04688 1.875,0 3.67187,0.52735 1.81641,0.52734 3.32032,1.28906 v 4.08203 h -0.19532 q -1.67968,-1.30859 -3.47656,-2.01172 -1.77734,-0.70312 -3.47656,-0.70312 -3.125,0 -4.94141,2.10937 -1.79687,2.08985 -1.79687,6.15235 0,3.94531 1.75781,6.07422 1.77734,2.10937 4.98047,2.10937 1.11328,0 2.26562,-0.29297 1.15235,-0.29297 2.07032,-0.76172 0.80078,-0.41015 1.5039,-0.85937 0.70313,-0.46875 1.11328,-0.80078 h 0.19532 z"
           id="path8263" />
        <path
           d="m 163.20117,150.26079 q -1.03515,0.27344 -2.26562,0.44922 -1.21094,0.17578 -2.16797,0.17578 -3.33985,0 -5.07813,-1.79687 -1.73828,-1.79688 -1.73828,-5.76172 v -11.60157 h -2.48047 v -3.08593 h 2.48047 v -6.26953 h 3.67188 v 6.26953 h 7.57812 v 3.08593 h -7.57812 v 9.94141 q 0,1.71875 0.0781,2.69531 0.0781,0.95703 0.54688,1.79688 0.42968,0.78125 1.17187,1.15234 0.76172,0.35156 2.30469,0.35156 0.89844,0 1.875,-0.2539 0.97656,-0.27344 1.40625,-0.44922 h 0.19531 z"
           id="path8265" />
        <path
           d="m 185.7207,150.4561 h -3.67187 v -2.42187 q -1.85547,1.46484 -3.55469,2.24609 -1.69922,0.78125 -3.75,0.78125 -3.4375,0 -5.35156,-2.08984 -1.91406,-2.10938 -1.91406,-6.17188 V 128.6397 h 3.67187 v 12.42187 q 0,1.66016 0.15625,2.85156 0.15625,1.17188 0.66406,2.01172 0.52735,0.85938 1.36719,1.25 0.83984,0.39063 2.44141,0.39063 1.42578,0 3.10547,-0.74219 1.69921,-0.74219 3.16406,-1.89453 V 128.6397 h 3.67187 z"
           id="path8267" />
        <path
           d="m 206.56055,132.6436 h -0.19532 q -0.82031,-0.19531 -1.60156,-0.27343 -0.76172,-0.0977 -1.8164,-0.0977 -1.69922,0 -3.28125,0.76172 -1.58204,0.74219 -3.04688,1.93359 v 15.48828 h -3.67187 v -21.8164 h 3.67187 v 3.22265 q 2.1875,-1.75781 3.84766,-2.48047 1.67968,-0.74218 3.41797,-0.74218 0.95703,0 1.38671,0.0586 0.42969,0.0391 1.28907,0.17578 z"
           id="path8269" />
        <path
           d="m 228.2793,139.92876 h -16.07422 q 0,2.01172 0.60547,3.51562 0.60547,1.48438 1.66015,2.44141 1.01563,0.9375 2.40235,1.40625 1.40625,0.46875 3.08593,0.46875 2.22657,0 4.47266,-0.87891 2.26563,-0.89843 3.22266,-1.75781 h 0.19531 v 4.00391 q -1.85547,0.78125 -3.78906,1.30859 -1.9336,0.52735 -4.0625,0.52735 -5.42969,0 -8.47657,-2.92969 -3.04687,-2.94922 -3.04687,-8.35938 0,-5.35156 2.91016,-8.49609 2.92968,-3.14453 7.69531,-3.14453 4.41406,0 6.79687,2.57812 2.40235,2.57813 2.40235,7.32422 z m -3.57422,-2.8125 q -0.0195,-2.89063 -1.46485,-4.47266 -1.42578,-1.58203 -4.35546,-1.58203 -2.94922,0 -4.70704,1.73828 -1.73828,1.73828 -1.97265,4.31641 z"
           id="path8271" />
      </g>
      <path
         id="path8505"
         style="stroke-width:0.264583"
         d="m 9.8128307,28.289319 c 1e-7,0.256723 -0.3746078,-0.03915 -0.8367101,-0.03915 -0.4621023,0 -0.9382582,0.27494 -0.8367101,0.03915 0.065738,-0.152638 0.3746078,-0.464839 0.8367101,-0.464839 0.4621023,0 0.8367102,0.208116 0.8367101,0.464839 z"
         sodipodi:nodetypes="sssss"
         inkscape:transform-center-x="0.0069091532"
         inkscape:transform-center-y="-0.18003734" />
      <path
         id="path9847"
         style="stroke-width:0.264583"
         d="m 10.508599,28.289319 c 0,0.256723 0.374608,-0.03915 0.836711,-0.03915 0.462102,0 0.938258,0.27494 0.83671,0.03915 -0.06574,-0.152638 -0.374608,-0.464839 -0.83671,-0.464839 -0.462103,0 -0.836711,0.208116 -0.836711,0.464839 z"
         sodipodi:nodetypes="sssss"
         inkscape:transform-center-x="-0.0069092323"
         inkscape:transform-center-y="-0.18003734" />
      <path
         id="path10033"
         style="stroke-width:0.264583"
         d="m 10.518105,29.472856 c 0,0.193633 -0.156971,0.295821 -0.350604,0.295821 -0.1936326,0 -0.3506027,-0.08028 -0.350603,-0.273908 -3e-7,-0.193633 0.15697,-0.208172 0.350603,-0.208172 0.193633,0 0.350604,-0.0074 0.350604,0.186259 z"
         sodipodi:nodetypes="scsss" />
    </g>
  </g>
</svg>
